<?xml version="1.0" standalone="no"?>
<!DOCTYPE svg PUBLIC "-//W3C//DTD SVG 20010904//EN"
 "http://www.w3.org/TR/2001/REC-SVG-20010904/DTD/svg10.dtd">
<svg version="1.0" xmlns="http://www.w3.org/2000/svg"
 width="300.000000pt" height="300.000000pt" viewBox="0 0 300.000000 300.000000"
 preserveAspectRatio="xMidYMid meet">
<metadata>
Created by potrace 1.14, written by Peter Selinger 2001-2017
</metadata>
<g transform="translate(0.000000,300.000000) scale(0.100000,-0.100000)"
fill="#000000" stroke="none">
<path d="M1 2233 c1 -423 5 -743 9 -713 59 436 379 797 805 911 78 21 112 24
265 24 151 0 187 -3 260 -23 198 -53 365 -148 504 -286 54 -54 122 -136 112
-136 -3 0 -27 13 -53 29 -84 50 -243 102 -370 120 -276 41 -578 -39 -809 -214
-70 -52 -196 -188 -242 -260 -112 -174 -168 -345 -178 -548 -10 -197 25 -363
112 -540 24 -48 39 -87 34 -87 -15 0 -179 161 -225 220 -105 136 -183 319
-210 488 -12 78 -13 21 -14 -565 l-1 -653 1500 0 1500 0 -1 783 c-1 493 -5
754 -10 707 -20 -170 -107 -387 -209 -522 -110 -145 -282 -280 -444 -347 -134
-56 -218 -73 -384 -78 -159 -6 -211 0 -347 40 -62 18 -224 89 -250 109 -5 5
-46 35 -90 67 -44 33 -102 85 -130 116 -27 32 -60 68 -72 82 -13 13 -23 26
-23 28 0 3 28 -10 63 -28 184 -95 304 -122 527 -121 134 1 168 5 255 28 295
79 540 272 683 537 168 313 173 677 14 1001 -48 97 -48 97 -19 76 133 -94 281
-284 344 -438 53 -130 72 -209 86 -360 2 -19 5 270 5 643 l2 677 -1500 0
-1500 0 1 -767z"/>
</g>
</svg>
